<?xml version="1.0" encoding="UTF-8"?>
<svg version="1.1" xmlns="http://www.w3.org/2000/svg" width="512" height="512">
<path d="M0 0 C0.65564941 0.25700684 1.31129883 0.51401367 1.98681641 0.77880859 C24.77881059 9.83666625 53.81435036 25.45008839 64.8125 48.4375 C70.45780564 61.95652141 70.62233746 75.62306199 65.07275391 89.28222656 C62.82242157 94.57160299 60.43541527 99.79364906 58 105 C59.62035156 104.96132812 59.62035156 104.96132812 61.2734375 104.921875 C67.5260032 105.05295604 72.60057294 107.60057294 77 112 C80.48552787 118.86505012 80.49141922 125.1829899 80.44604492 132.76049805 C80.43753262 134.92918846 80.46634969 137.0952406 80.49804688 139.26367188 C80.5449086 148.1007628 80.0571483 154.55818469 73.81640625 161.390625 C72.70072266 162.31101563 72.70072266 162.31101563 71.5625 163.25 C70.82128906 163.87390625 70.08007812 164.4978125 69.31640625 165.140625 C67 167 67 167 64.3956604 168.69691467 C61.73598321 170.81939768 61.73598321 170.81939768 61.36508179 174.06687927 C61.36110382 175.26869339 61.35712585 176.47050751 61.35302734 177.70874023 C61.34426575 178.37428925 61.33550415 179.03983826 61.32647705 179.72555542 C61.3045119 181.92056941 61.31902385 184.11356012 61.3359375 186.30859375 C61.33256805 187.83789963 61.32771435 189.3672029 61.32144165 190.89649963 C61.31407402 194.10028603 61.32476965 197.30337486 61.34814453 200.50708008 C61.37660953 204.60766718 61.3602442 208.70661642 61.33028221 212.80714321 C61.31218484 215.96515669 61.31797854 219.12278407 61.33092117 222.2808094 C61.33424977 223.79223895 61.33018726 225.30370388 61.31852341 226.81509209 C61.3057754 228.93162224 61.32524008 231.04552975 61.35302734 233.16186523 C61.35899429 234.9657798 61.35899429 234.9657798 61.36508179 236.80613708 C62.64094733 243.2241915 68.72278741 246.35865963 73.81640625 249.86328125 C79.26923495 255.1990546 80.34045661 260.36431282 80.53125 267.75390625 C80.55201421 269.94288907 80.54644868 272.12917748 80.52148438 274.31811523 C80.50000977 276.56147943 80.52136381 278.80165428 80.546875 281.04492188 C80.544232 282.4895903 80.53910759 283.93425677 80.53125 285.37890625 C80.52673828 286.6738501 80.52222656 287.96879395 80.51757812 289.30297852 C79.75563859 294.74545507 77.38488228 299.43569104 72.9375 302.875 C68.39656959 306.15992838 64.70928787 306.13982708 59.31567383 306.11352539 C58.5349501 306.11367142 57.75422638 306.11381744 56.94984436 306.1139679 C54.36887841 306.11327114 51.7879846 306.10548982 49.20703125 306.09765625 C47.41769958 306.09579123 45.6283674 306.09436772 43.83903503 306.09336853 C39.12902416 306.08954999 34.41904411 306.07972533 29.70904541 306.06866455 C24.90303972 306.05843621 20.09702906 306.05386786 15.29101562 306.04882812 C5.86066354 306.03810249 -3.56966567 306.02103399 -13 306 C-12.99000725 307.68343506 -12.99000725 307.68343506 -12.97981262 309.40087891 C-12.91891281 319.99398018 -12.87398475 330.58704577 -12.84456348 341.18028259 C-12.82892907 346.62595942 -12.80773131 352.07149455 -12.77368164 357.51708984 C-12.74100905 362.77554715 -12.72313026 368.03386843 -12.71536827 373.29241943 C-12.70983895 375.29541158 -12.69904156 377.29839656 -12.68280983 379.30133057 C-12.66093064 382.11380923 -12.65803746 384.92573073 -12.65942383 387.73828125 C-12.648638 388.56043625 -12.63785217 389.38259125 -12.6267395 390.22966003 C-12.66048137 396.58437896 -13.68968544 402.28444882 -17.9375 407.27734375 C-18.618125 407.82519531 -19.29875 408.37304688 -20 408.9375 C-20.680625 409.50339844 -21.36125 410.06929688 -22.0625 410.65234375 C-25.92371851 413.33807033 -29.70715505 413.15066582 -34.21635437 413.15390015 C-34.95647965 413.1582824 -35.69660493 413.16266465 -36.45915824 413.1671797 C-38.94632616 413.18056477 -41.43345865 413.18674592 -43.9206543 413.19287109 C-45.70119893 413.20077233 -47.48174197 413.20904129 -49.26228333 413.21765137 C-55.11624624 413.24387025 -60.97021631 413.25917943 -66.82421875 413.2734375 C-68.83956215 413.27879734 -70.85490549 413.28417485 -72.87024879 413.28956985 C-81.25397846 413.31119887 -89.63770621 413.32993529 -98.02145672 413.34119225 C-110.03521405 413.35742942 -122.04864785 413.39060141 -134.06228322 413.44759309 C-142.50995726 413.48630125 -150.95754481 413.50582601 -159.40530521 413.51111281 C-164.4504163 413.51476521 -169.49518232 413.52677471 -174.54019737 413.55921555 C-179.28860976 413.58931127 -184.03646854 413.59560262 -188.78495598 413.58383179 C-190.52479364 413.58361118 -192.26465711 413.59190605 -194.00440598 413.60948563 C-209.86588123 413.76099603 -209.86588123 413.76099603 -215.62957478 409.37841225 C-221.3449024 403.62977492 -222.14957765 398.38620035 -222.1673584 390.64472961 C-222.17604848 389.35078184 -222.17604848 389.35078184 -222.18491411 388.03069371 C-222.20300739 385.12894774 -222.21385515 382.22722126 -222.22460938 379.32543945 C-222.23578266 377.24933189 -222.24729592 375.17322613 -222.25912476 373.09712219 C-222.29570481 366.2692008 -222.32090315 359.44126084 -222.34375 352.61328125 C-222.34769587 351.45200077 -222.35164173 350.29072029 -222.35570717 349.09424949 C-222.39212427 338.14418211 -222.42357149 327.19410832 -222.44481659 316.24400043 C-222.47240066 302.23325892 -222.52318545 288.22302316 -222.60529089 274.21249229 C-222.66105622 264.363561 -222.69004883 254.51476706 -222.6992898 244.66568345 C-222.70555098 238.782094 -222.72370671 232.89909746 -222.77067566 227.01568031 C-222.81432732 221.47922444 -222.82483467 215.94368601 -222.81004715 210.40708733 C-222.81037594 208.37697117 -222.82266312 206.34681574 -222.84789658 204.31685638 C-223.05106065 187.05968745 -223.05106065 187.05968745 -218.75421143 182.04286194 C-217.53679354 180.98802359 -216.28752255 179.96802682 -215 179 C-214.16511047 178.12320587 -213.33022095 177.24641174 -212.47003174 176.3430481 C-211.69520447 175.56742523 -210.9203772 174.79180237 -210.12207031 173.99267578 C-209.23134827 173.09880157 -208.34062622 172.20492737 -207.4229126 171.28396606 C-206.47477781 170.33762021 -205.52651223 169.39140537 -204.578125 168.4453125 C-203.58625982 167.45277205 -202.59454298 166.46008333 -201.60296631 165.46725464 C-199.5404766 163.40330188 -197.47621745 161.34114042 -195.41064453 159.28027344 C-192.76546625 156.6408293 -190.12485413 153.99686939 -187.48552322 151.35157967 C-185.44559138 149.30803633 -183.40328652 147.26687801 -181.36025238 145.22643661 C-180.3851054 144.25195534 -179.41069691 143.27673448 -178.43704987 142.30075455 C-177.08057078 140.94173524 -175.72054049 139.58626329 -174.36035156 138.23095703 C-173.58870667 137.46010773 -172.81706177 136.68925842 -172.02203369 135.89505005 C-168.73802828 132.81728006 -166.77249415 131.74920915 -162.3449707 131.77294922 C-160.93384758 131.77317581 -160.93384758 131.77317581 -159.49421692 131.77340698 C-158.48163315 131.78372955 -157.46904938 131.79405212 -156.42578125 131.8046875 C-154.86732735 131.80893234 -154.86732735 131.80893234 -153.27738953 131.81326294 C-149.95564303 131.82446718 -146.63416515 131.84957236 -143.3125 131.875 C-141.06185285 131.88502948 -138.81120148 131.89415538 -136.56054688 131.90234375 C-131.04027278 131.9244073 -125.52015558 131.95788729 -120 132 C-120.02465332 131.04303223 -120.04930664 130.08606445 -120.07470703 129.10009766 C-120.09388184 127.84245605 -120.11305664 126.58481445 -120.1328125 125.2890625 C-120.15746582 124.04334473 -120.18211914 122.79762695 -120.20751953 121.51416016 C-119.91676659 116.59051572 -118.39003446 113.51395217 -115 110 C-110.06224394 106.06994926 -106.3058114 104.88868039 -100.11517334 104.84178162 C-99.13363281 104.8319928 -98.15209229 104.82220398 -97.14080811 104.81211853 C-96.07050354 104.80636307 -95.00019897 104.8006076 -93.89746094 104.79467773 C-92.76546265 104.78477814 -91.63346436 104.77487854 -90.46716309 104.76467896 C-86.72292172 104.73307403 -82.97866766 104.70831037 -79.234375 104.68359375 C-76.63933989 104.66302337 -74.04430813 104.64202687 -71.44927979 104.62062073 C-65.31538938 104.57105306 -59.18148102 104.52578544 -53.04754281 104.48259836 C-46.06327184 104.43318461 -39.0790474 104.37828185 -32.09482145 104.32291877 C-17.72992468 104.20917299 -3.36498249 104.10231788 11 104 C12.8169318 100.2473752 14.63163692 96.49368425 16.44433594 92.73901367 C17.06059497 91.4633316 17.67744885 90.1879367 18.29492188 88.9128418 C19.18518189 87.07416768 20.0732585 85.23445256 20.9609375 83.39453125 C21.76217041 81.73707886 21.76217041 81.73707886 22.57958984 80.04614258 C25.78333072 73.31863033 25.78333072 73.31863033 26 66 C15.10622448 51.33899374 -7.6754114 41.10522448 -24.81640625 36.73828125 C-28.87200765 37.22437301 -30.87044994 40.58397139 -33.29760742 43.62670898 C-34.66687784 45.41776246 -35.9944423 47.23345958 -37.3125 49.0625 C-37.78816406 49.71500732 -38.26382813 50.36751465 -38.75390625 51.03979492 C-42.4571883 56.15482881 -45.95081651 61.38041321 -49.34375 66.70703125 C-51 69 -51 69 -54 71 C-61.3869648 71.13844378 -67.16786242 66.80957622 -73.3125 63.125 C-74.40884766 62.48691406 -75.50519531 61.84882812 -76.63476562 61.19140625 C-84.72760434 56.40859348 -84.72760434 56.40859348 -87 53 C-87.85069215 47.26815195 -85.6067146 43.96185343 -82.5625 39.375 C-82.1102002 38.6742334 -81.65790039 37.9734668 -81.19189453 37.25146484 C-77.07477127 30.94716475 -72.64505552 24.92645014 -68 19 C-67.32066406 18.10410156 -66.64132812 17.20820312 -65.94140625 16.28515625 C-48.96059216 -5.72701016 -25.2295012 -10.11831134 0 0 Z " fill="#1F3040" transform="translate(327,52)"/>
<path d="M0 0 C12.87 0 25.74 0 39 0 C39.99 4.95 39.99 4.95 41 10 C44.61566979 15.29122409 48.5946761 18.33963383 54.046875 21.640625 C56 23 56 23 58 26 C58.26742554 28.94662476 58.26742554 28.94662476 58.29052734 32.59521484 C58.29724457 33.26061783 58.30396179 33.92602081 58.31088257 34.61158752 C58.32988113 36.81144681 58.33378773 39.01100128 58.3359375 41.2109375 C58.34236451 42.74166998 58.3490928 44.27240122 58.35610962 45.8031311 C58.36808726 49.01266324 58.37178999 52.22208771 58.37060547 55.43164062 C58.37040233 59.53982282 58.39769625 63.64731283 58.43214989 67.75533104 C58.45441368 70.91754309 58.45844317 74.07958848 58.45738602 77.24187088 C58.45974309 78.75611378 58.46857268 80.2703612 58.48405075 81.78452682 C58.50370028 83.90550593 58.49787858 86.02499172 58.48583984 88.14599609 C58.48868988 89.35162201 58.49153992 90.55724792 58.49447632 91.79940796 C57.90118645 95.63958951 56.68657712 97.24562598 54 100 C51.27999632 101.93200262 48.49198491 103.69246539 45.65625 105.44921875 C40.00801227 110.87318822 38.80490782 117.41178058 38.43359375 125.0390625 C38.41388037 127.56763182 38.41556869 130.09644894 38.4375 132.625 C38.40172852 134.53152344 38.40172852 134.53152344 38.36523438 136.4765625 C38.37862695 145.04780834 39.30342585 150.3108753 45.40452576 156.40229797 C52.49352333 161.83915842 61.57759521 160.72939018 70.0625 160.70703125 C71.82228294 160.72015923 73.58205085 160.73546683 75.34179688 160.75285339 C79.95151776 160.79258782 84.56084342 160.80288635 89.17071533 160.80688477 C93.88346254 160.81623808 98.59597963 160.85366532 103.30859375 160.88867188 C112.53905186 160.9531299 121.7693365 160.98646656 131 161 C131.06943466 172.8130765 131.12277803 184.62610464 131.15543652 196.43934345 C131.17110899 201.92439786 131.19237618 207.40931291 131.22631836 212.89428711 C131.2588553 218.1851406 131.27684109 223.47585985 131.28463173 228.76680565 C131.29018543 230.78788556 131.30103011 232.80895792 131.31719017 234.82998085 C131.3388891 237.65545296 131.34197008 240.48036652 131.34057617 243.3059082 C131.351362 244.14603958 131.36214783 244.98617096 131.3732605 245.85176086 C131.34323221 251.457042 131.34323221 251.457042 129.91634083 253.71423721 C126.98307209 255.68230455 124.48265789 255.38108438 120.9777832 255.38768005 C120.25863141 255.39306559 119.53947962 255.39845113 118.79853535 255.40399987 C116.38244458 255.41833755 113.96689721 255.41116171 111.55078125 255.40405273 C109.8212337 255.40975324 108.09168992 255.41671626 106.3621521 255.42485046 C101.65974494 255.44283127 96.95752387 255.44160441 92.25509262 255.43590808 C88.33336313 255.43282367 84.41166977 255.43890025 80.48994541 255.44494683 C71.24098788 255.45900629 61.99212269 255.45741864 52.74316406 255.44604492 C43.19150924 255.43455876 33.64013503 255.4486445 24.08851719 255.4754414 C15.89567615 255.49756833 7.7029234 255.50424268 -0.48994541 255.49836498 C-5.38670634 255.4949874 -10.2832873 255.49746353 -15.18002319 255.51461601 C-19.78312779 255.53003555 -24.38581523 255.52618549 -28.98890305 255.50731087 C-30.6808298 255.50361125 -32.37278713 255.5067732 -34.06468582 255.51719666 C-36.36953868 255.53031524 -38.67299175 255.51894249 -40.9777832 255.50120544 C-42.26900589 255.50099616 -43.56022858 255.50078688 -44.89057922 255.50057125 C-48 255 -48 255 -49.91634083 253.47328663 C-51.44923996 249.97467837 -51.40351161 246.67604349 -51.36076355 242.9262085 C-51.36332682 242.10608032 -51.3658901 241.28595215 -51.36853105 240.44097161 C-51.3734776 237.68928971 -51.35696174 234.9381549 -51.34057617 232.18652344 C-51.33973009 230.21551527 -51.34020468 228.24450615 -51.34190369 226.27349854 C-51.34276579 220.91845174 -51.32510512 215.56360581 -51.30418181 210.20860577 C-51.28545092 204.6138733 -51.2836674 199.01913643 -51.28010559 193.42437744 C-51.27077458 182.82800874 -51.24614647 172.23173269 -51.21605712 161.63540483 C-51.182546 149.57267674 -51.16603537 137.50994426 -51.15097082 125.44718122 C-51.11959787 100.63140275 -51.06681682 75.81570656 -51 51 C-49.92105469 50.9906543 -48.84210938 50.98130859 -47.73046875 50.97167969 C-43.69702062 50.93156792 -39.66431837 50.86575227 -35.63134766 50.79248047 C-33.89153686 50.76439297 -32.15160135 50.74311806 -30.41162109 50.72900391 C-27.8987703 50.70740347 -25.38739967 50.66067014 -22.875 50.609375 C-22.10696045 50.60814636 -21.3389209 50.60691772 -20.54760742 50.60565186 C-14.2373739 50.43754152 -8.72749137 48.68441423 -4.14985657 44.17907715 C-1.08423705 39.01997217 -0.26246045 34.8698532 -0.29296875 28.90625 C-0.27834595 28.16729492 -0.26372314 27.42833984 -0.24865723 26.66699219 C-0.2018081 23.94498827 -0.19702607 21.22239039 -0.1875 18.5 C-0.125625 12.395 -0.06375 6.29 0 0 Z " fill="#CACBCB" transform="translate(169,197)"/>
<path d="M0 0 C0.68169426 -0.00467997 1.36338851 -0.00935994 2.06574017 -0.01418173 C4.35514499 -0.02616934 6.64395536 -0.01666021 8.93336487 -0.00723267 C10.57262014 -0.01129675 12.21187267 -0.01663771 13.85112 -0.02316284 C18.30774842 -0.03686281 22.76416896 -0.0315265 27.22080112 -0.02202559 C31.8807779 -0.01444156 36.54073664 -0.02147121 41.20071411 -0.02618408 C49.02813418 -0.03164585 56.8554694 -0.02443956 64.68287659 -0.01016235 C73.73573818 0.00615928 82.78839703 0.0008809 91.8412537 -0.01564157 C99.60863368 -0.02925125 107.37595259 -0.03117846 115.14334065 -0.02332556 C119.78467543 -0.01864546 124.4259149 -0.01803333 129.06724358 -0.02793503 C133.43145749 -0.03659468 137.79540986 -0.03060117 142.15959549 -0.01325226 C143.76240797 -0.00928181 145.36524242 -0.01043101 146.96804619 -0.01704025 C149.15412588 -0.02522421 151.33936468 -0.01497326 153.52539062 0 C154.74932242 0.00113108 155.97325422 0.00226215 157.23427486 0.00342751 C160.58101989 0.41206608 161.98746887 0.98676765 164.32618713 3.38095093 C165.18493769 7.76588454 164.9282304 12.23436591 164.88868713 16.69345093 C164.91253479 17.91741577 164.93638245 19.14138062 164.96095276 20.4024353 C164.94457215 30.44375149 164.94457215 30.44375149 162.07618713 34.02157593 C158.98549353 36.67325055 155.85599019 39.06311484 152.50978088 41.37704468 C148.52517291 45.03376005 146.54515138 48.7916775 145.81825256 54.06761169 C145.81507019 55.38410202 145.81188782 56.70059235 145.80860901 58.05697632 C145.80159973 58.78963211 145.79459045 59.5222879 145.78736877 60.27714539 C145.76988769 62.67802812 145.78137393 65.0777143 145.79493713 67.47860718 C145.79223964 69.1581698 145.78835508 70.8377309 145.78334045 72.51728821 C145.77745909 76.02839096 145.78596515 79.53908529 145.80470276 83.05014038 C145.82750948 87.54153674 145.81435022 92.03197779 145.7904129 96.52333927 C145.77593289 99.98844046 145.78057063 103.4533165 145.79092407 106.91842461 C145.79358437 108.57416333 145.79034618 110.22992277 145.78100586 111.88563728 C145.77080141 114.20241292 145.78639249 116.51765793 145.80860901 118.83432007 C145.81179138 120.1500148 145.81497375 121.46570953 145.81825256 122.8212738 C146.64870169 128.64117844 149.85795446 132.32432877 154.26368713 136.00595093 C155.30009338 136.8818689 155.30009338 136.8818689 156.35743713 137.77548218 C157.97939471 139.09814997 159.6192227 140.39887254 161.26368713 141.69345093 C163.32618713 143.38095093 163.32618713 143.38095093 164.32618713 145.38095093 C164.59740921 149.85488229 164.55781207 154.33723254 164.57618713 158.81845093 C164.60712463 160.69887085 164.60712463 160.69887085 164.63868713 162.61727905 C164.64642151 164.41648804 164.64642151 164.41648804 164.65431213 166.25204468 C164.66365784 167.35475708 164.67300354 168.45746948 164.68263245 169.59359741 C164.32618713 172.38095093 164.32618713 172.38095093 163.22381592 174.03135109 C160.38234714 176.05221304 158.06865829 175.75872498 154.60768127 175.76190186 C153.9211979 175.76658183 153.23471453 175.7712618 152.52742863 175.77608359 C150.22187168 175.78807156 147.91690498 175.77856195 145.61134338 175.76913452 C143.96061353 175.77319855 142.30988639 175.77853948 140.65916443 175.7850647 C136.17161287 175.79876424 131.68426776 175.79342881 127.19671249 175.78392744 C122.50557133 175.77634448 117.81444812 175.78337265 113.12330627 175.78808594 C105.2446118 175.79354747 97.36600163 175.78634145 89.48731995 175.77206421 C80.37195486 175.75573693 71.25679106 175.76102515 62.14143085 175.77754343 C54.32226237 175.79114697 46.50315457 175.7930835 38.68397808 175.78522742 C34.01081733 175.78054466 29.33775126 175.77994255 24.66459656 175.78983688 C20.27165913 175.79848784 15.8789818 175.79251906 11.48607254 175.77515411 C9.8715521 175.77117923 8.25700985 175.77234038 6.64249802 175.77894211 C4.44293176 175.78710851 2.24420535 175.77689662 0.04469299 175.76190186 C-1.80364891 175.76020524 -1.80364891 175.76020524 -3.68933105 175.75847435 C-6.67381287 175.38095093 -6.67381287 175.38095093 -8.56747437 174.02837563 C-11.29513009 169.96668257 -10.18359675 163.71199683 -10.17381287 159.00595093 C-10.21635193 157.1574353 -10.21635193 157.1574353 -10.25975037 155.27157593 C-10.27935776 146.23256531 -10.27935776 146.23256531 -7.46287537 142.27157593 C-6.54248474 141.64766968 -5.62209412 141.02376343 -4.67381287 140.38095093 C-3.82560974 139.72352905 -2.97740662 139.06610718 -2.10350037 138.38876343 C-0.39947765 137.13289347 1.30888047 135.88288495 3.02149963 134.63876343 C6.81790377 130.91957429 8.16089427 126.94471172 8.70713806 121.77694702 C8.70952484 120.49900269 8.71191162 119.22105835 8.71437073 117.90438843 C8.71962769 117.19284607 8.72488464 116.48130371 8.7303009 115.74819946 C8.74340759 113.41722065 8.73479658 111.0869356 8.72462463 108.75595093 C8.72664806 107.12362539 8.72956174 105.49130073 8.73332214 103.85897827 C8.73773285 100.44629263 8.73135507 97.03384336 8.71730042 93.6211853 C8.70020914 89.26006248 8.71005708 84.89949364 8.72801781 80.53839111 C8.73888969 77.17021557 8.73539375 73.80217006 8.72763443 70.43399048 C8.72564182 68.82652724 8.7280585 67.21905196 8.73507309 65.61160278 C8.74274405 63.35992429 8.73100591 61.10912678 8.71437073 58.85751343 C8.71198395 57.57956909 8.70959717 56.30162476 8.70713806 54.98495483 C8.04401524 48.71145068 5.87991933 44.27269174 0.95118713 40.19345093 C0.15970276 39.52700562 -0.63178162 38.8605603 -1.44725037 38.17391968 C-3.18281561 36.77633293 -4.9267034 35.38907925 -6.67381287 34.00595093 C-8.67381287 32.38095093 -8.67381287 32.38095093 -9.67381287 30.38095093 C-9.94503494 25.90701956 -9.9054378 21.42466931 -9.92381287 16.94345093 C-9.94443787 15.68983765 -9.96506287 14.43622437 -9.98631287 13.1446228 C-9.99146912 11.94515015 -9.99662537 10.74567749 -10.00193787 9.50985718 C-10.01128357 8.40714478 -10.02062927 7.30443237 -10.03025818 6.16830444 C-9.67381287 3.38095093 -9.67381287 3.38095093 -8.56864834 1.73055077 C-5.73915997 -0.28475721 -3.44861518 0.00318796 0 0 Z " fill="#FCBD31" transform="translate(229.67381286621094,169.61904907226563)"/>
<path d="M0 0 C9.32161328 5.25910353 15.57656584 13.13660779 18.46484375 23.390625 C19.5206289 33.64156217 18.61909644 42.88661512 12.30078125 51.2578125 C6.35571809 58.09366689 6.35571809 58.09366689 2.46484375 59.390625 C2.48579102 60.68162109 2.50673828 61.97261719 2.52832031 63.30273438 C2.60103021 68.11837559 2.646756 72.93396881 2.68457031 77.75 C2.70461534 79.82951025 2.73185888 81.90896463 2.76660156 83.98828125 C2.81543323 86.98711987 2.83788403 89.98520963 2.85546875 92.984375 C2.87611389 93.90553101 2.89675903 94.82668701 2.91802979 95.77575684 C2.92007105 101.72346709 2.05161532 106.51132807 -1.53515625 111.390625 C-6.88227871 115.77433094 -12.74168566 116.01103598 -19.47265625 115.76953125 C-23.96609016 115.21358343 -26.03194939 114.29754133 -29.53515625 111.390625 C-33.76648968 105.52254443 -34.08065008 100.97610431 -33.92578125 93.86328125 C-33.92012146 92.87436386 -33.91446167 91.88544647 -33.90863037 90.86656189 C-33.8863564 87.72824357 -33.83617623 84.59109443 -33.78515625 81.453125 C-33.76507967 79.31707386 -33.74683093 77.1810047 -33.73046875 75.04492188 C-33.68652136 69.8264284 -33.61969995 64.60861026 -33.53515625 59.390625 C-34.44974609 58.96136719 -34.44974609 58.96136719 -35.3828125 58.5234375 C-42.19887079 54.9360384 -46.34550469 47.73297937 -48.84765625 40.703125 C-50.75527587 31.27615039 -50.54339609 21.76483633 -45.53515625 13.390625 C-34.76305451 -1.93627664 -17.44684783 -7.45098464 0 0 Z " fill="#20303F" transform="translate(322.53515625,201.609375)"/>
<path d="M0 0 C22.26416369 16.37253263 22.26416369 16.37253263 26.8046875 28.0625 C27.2171875 28.990625 27.6296875 29.91875 28.0546875 30.875 C31.11624916 43.88663707 25.78792886 54.43366611 20.6171875 66.125 C20.15376953 67.18138672 19.69035156 68.23777344 19.21289062 69.32617188 C18.08034908 71.90649848 16.94301159 74.48471918 15.8046875 77.0625 C10.1946875 77.0625 4.5846875 77.0625 -1.1953125 77.0625 C0.07002915 73.26647506 1.26830498 69.84020768 2.8984375 66.2421875 C3.28902344 65.37722656 3.67960937 64.51226562 4.08203125 63.62109375 C4.68724609 62.29271484 4.68724609 62.29271484 5.3046875 60.9375 C5.70816406 60.04417969 6.11164063 59.15085937 6.52734375 58.23046875 C9.59209678 51.46373682 9.59209678 51.46373682 10.91015625 48.97607422 C13.1589595 44.16545199 12.42928981 38.19811897 11.8046875 33.0625 C10.45547669 29.63230303 8.49488259 27.545757 5.8046875 25.0625 C4.94230469 24.26328125 4.07992187 23.4640625 3.19140625 22.640625 C-3.75459665 16.56862246 -11.14962636 11.60109218 -19.1953125 7.0625 C-20.13761719 6.52882813 -21.07992187 5.99515625 -22.05078125 5.4453125 C-27.96636587 2.29577365 -34.06395996 -0.11718128 -40.3828125 -2.3125 C-41.11910889 -2.57562988 -41.85540527 -2.83875977 -42.61401367 -3.10986328 C-48.62376067 -5.10528447 -54.51861454 -6.56606568 -60.52514648 -3.90551758 C-66.42017375 -0.30995578 -70.13605212 4.33313733 -73.9453125 10 C-74.48285156 10.77279297 -75.02039063 11.54558594 -75.57421875 12.34179688 C-76.62551928 13.85479995 -77.67069554 15.37208127 -78.70898438 16.89404297 C-80.82623768 19.98297922 -83.00912003 23.02207306 -85.1953125 26.0625 C-90.45701944 24.65082253 -93.91702608 22.31399768 -98.1953125 19.0625 C-96.68804598 14.64836234 -94.30022091 11.10696829 -91.5703125 7.375 C-91.12445801 6.76068115 -90.67860352 6.1463623 -90.21923828 5.51342773 C-64.07917486 -30.28100755 -33.73252003 -23.40250712 0 0 Z " fill="#5EB4FA" transform="translate(354.1953125,80.9375)"/>
<path d="M0 0 C5.11910691 3.19265855 8.87977647 7.22715032 11.1875 12.875 C11.93705304 19.77672867 11.75139095 25.85325323 8.1875 31.875 C5.47394793 34.93644336 2.61540224 37.62913301 -0.8125 39.875 C-1.4725 39.875 -2.1325 39.875 -2.8125 39.875 C-2.82280746 40.4991832 -2.83311493 41.12336639 -2.84373474 41.76646423 C-2.95156533 48.23854552 -3.06618147 54.71048093 -3.18481445 61.18237305 C-3.22823878 63.60063639 -3.26990812 66.0189319 -3.30981445 68.43725586 C-3.36733603 71.90488396 -3.43108187 75.37234903 -3.49609375 78.83984375 C-3.52116249 80.47263527 -3.52116249 80.47263527 -3.54673767 82.13841248 C-3.56668289 83.13937454 -3.58662811 84.14033661 -3.60717773 85.17163086 C-3.62272202 86.05765488 -3.6382663 86.94367889 -3.65428162 87.85655212 C-3.8125 89.875 -3.8125 89.875 -4.8125 90.875 C-6.47679051 90.97323937 -8.14531931 91.00473631 -9.8125 91 C-11.17375 91.00386719 -11.17375 91.00386719 -12.5625 91.0078125 C-14.8125 90.875 -14.8125 90.875 -15.8125 89.875 C-15.88291701 88.41233748 -15.88503017 86.94630527 -15.85913086 85.48217773 C-15.84679916 84.5470787 -15.83446747 83.61197968 -15.82176208 82.64854431 C-15.80710403 81.62886063 -15.79244598 80.60917694 -15.77734375 79.55859375 C-15.77131028 77.4108133 -15.76814824 75.26302322 -15.76757812 73.11523438 C-15.76586311 69.71926593 -15.75027147 66.32679492 -15.68579102 62.93139648 C-14.90459435 50.21533356 -14.90459435 50.21533356 -19.01757812 38.69262695 C-21.53511078 36.71902536 -23.98616567 35.34422361 -26.8125 33.875 C-31.24709074 28.57213133 -31.43178976 22.6449171 -31.19140625 15.9296875 C-30.35761663 9.20779595 -26.72402322 5.21204368 -21.5234375 1.09765625 C-15.01828479 -3.55100311 -7.03020245 -3.65007172 0 0 Z " fill="#817582" transform="translate(316.8125,213.125)"/>
<path d="M0 0 C1.76448738 -0.01268921 1.76448738 -0.01268921 3.56462097 -0.02563477 C4.85665436 -0.01956207 6.14868774 -0.01348938 7.47987366 -0.00723267 C8.85312315 -0.0112974 10.22636937 -0.01663872 11.59960938 -0.02316284 C15.33106761 -0.03685543 19.06227738 -0.03152957 22.79374003 -0.02202559 C26.69698307 -0.01443746 30.60020463 -0.02147238 34.50344849 -0.02618408 C41.05975671 -0.03164476 47.61596362 -0.02444254 54.17225647 -0.01016235 C61.75277901 0.00615801 69.33305942 0.00088147 76.91357607 -0.01564157 C83.41982341 -0.02925569 89.92599786 -0.03117627 96.43225485 -0.02332556 C100.3190629 -0.01864774 104.20575716 -0.01802699 108.09255791 -0.02793503 C111.74764015 -0.03660116 115.40241035 -0.03058955 119.05745888 -0.01325226 C121.03905941 -0.00739263 123.02068632 -0.01630648 125.00227356 -0.02563477 C126.77099068 -0.01294556 126.77099068 -0.01294556 128.57543945 0 C129.60026397 0.00113108 130.62508848 0.00226215 131.68096828 0.00342751 C134.76945942 0.44008351 136.15025246 1.19380157 138.35121155 3.38095093 C138.85121155 6.31845093 138.85121155 6.31845093 138.35121155 9.38095093 C136.26716009 12.07166515 135.08068479 13.24325244 131.69937897 13.88152218 C130.68322762 13.88173146 129.66707626 13.88194075 128.62013245 13.88215637 C126.8662043 13.89690758 126.8662043 13.89690758 125.07684326 13.91195679 C123.1582122 13.89745483 123.1582122 13.89745483 121.20082092 13.88265991 C119.8372746 13.88644381 118.47373212 13.89194444 117.11019897 13.89903259 C113.40970862 13.91299562 109.70968278 13.90181189 106.00921822 13.88532138 C102.1366807 13.87147165 98.26417017 13.87793087 94.39161682 13.88145447 C87.88832615 13.88415666 81.38522003 13.87068033 74.88197327 13.84750366 C67.36333605 13.82089376 59.84500741 13.81914673 52.32633924 13.83089203 C45.0936078 13.84167136 37.86098797 13.83548155 30.62826538 13.82133675 C27.55018475 13.81557826 24.47218584 13.81565852 21.394104 13.82040215 C17.76935842 13.82517463 14.14495071 13.81505942 10.52026939 13.79344749 C8.5553893 13.78522865 6.59046495 13.79172976 4.62557983 13.79864502 C3.4562944 13.78874039 2.28700897 13.77883575 1.08229065 13.76863098 C-0.44193638 13.76498614 -0.44193638 13.76498614 -1.99695587 13.76126766 C-5.08451299 13.31846081 -6.4681146 12.59476788 -8.64878845 10.38095093 C-9.39004931 4.45086408 -9.39004931 4.45086408 -7.47449398 1.68601036 C-4.92164976 -0.13882578 -3.12443894 0.00344965 0 0 Z " fill="#233343" transform="translate(144.64878845214844,408.6190490722656)"/>
<path d="M0 0 C1.78700317 -0.01418472 1.78700317 -0.01418472 3.61010742 -0.02865601 C5.54140503 -0.01954697 5.54140503 -0.01954697 7.51171875 -0.01025391 C8.8454606 -0.01227496 10.17920138 -0.01518666 11.51293945 -0.01895142 C14.30723601 -0.02337336 17.10124473 -0.01694831 19.89550781 -0.00292969 C23.4769634 0.01416265 27.05774457 0.0043207 30.63917542 -0.01364708 C33.39299601 -0.02448872 36.14665676 -0.02103695 38.90048218 -0.0132637 C40.8631026 -0.01028969 42.82572923 -0.01939932 44.78833008 -0.02865601 C45.97966553 -0.01919952 47.17100098 -0.00974304 48.3984375 0 C49.44862061 0.00238678 50.49880371 0.00477356 51.58081055 0.00723267 C54.19921875 0.38818359 54.19921875 0.38818359 56.03442383 1.69369507 C58.0138048 4.57320482 57.61939445 7.026778 57.19921875 10.38818359 C55.01618756 12.60300612 53.63329606 13.32592388 50.54321289 13.76913452 C49.53379639 13.7715213 48.52437988 13.77390808 47.484375 13.77636719 C46.33638428 13.78582367 45.18839355 13.79528015 44.00561523 13.80502319 C42.15238647 13.79591415 42.15238647 13.79591415 40.26171875 13.78662109 C38.35338257 13.79092636 38.35338257 13.79092636 36.40649414 13.7953186 C33.71632266 13.79736036 31.02696871 13.79333141 28.33691406 13.77929688 C24.89345978 13.76220474 21.450707 13.77204924 18.00727844 13.79001427 C14.7170669 13.80347766 11.42693945 13.79404394 8.13671875 13.78662109 C6.90123291 13.79269379 5.66574707 13.79876648 4.39282227 13.80502319 C3.24483154 13.79556671 2.09684082 13.78611023 0.9140625 13.77636719 C-0.60006226 13.77278702 -0.60006226 13.77278702 -2.14477539 13.76913452 C-5.23485856 13.32592388 -6.61775006 12.60300612 -8.80078125 10.38818359 C-9.54114964 4.46523649 -9.54114964 4.46523649 -7.63598633 1.69369507 C-5.04445845 -0.14984243 -3.16444561 0.00719192 0 0 Z " fill="#223342" transform="translate(144.80078125,278.61181640625)"/>
<path d="M0 0 C1.19133545 -0.00630432 2.3826709 -0.01260864 3.61010742 -0.019104 C4.89763916 -0.01505554 6.1851709 -0.01100708 7.51171875 -0.00683594 C8.8454597 -0.00818331 10.17920018 -0.01012444 11.51293945 -0.01263428 C14.30717651 -0.01558218 17.10128563 -0.01129873 19.89550781 -0.00195312 C23.47683394 0.00944136 27.05786029 0.00288008 30.63917542 -0.00909805 C33.3929673 -0.01632574 36.14668815 -0.01402457 38.90048218 -0.00884247 C40.86310012 -0.0068598 42.82572083 -0.01293286 44.78833008 -0.019104 C46.57533325 -0.00964752 46.57533325 -0.00964752 48.3984375 0 C49.44862061 0.00159119 50.49880371 0.00318237 51.58081055 0.00482178 C54.19921875 0.25878906 54.19921875 0.25878906 57.19921875 2.25878906 C57.59765625 4.13378906 57.59765625 4.13378906 57.57421875 6.25878906 C57.58582031 7.31066406 57.58582031 7.31066406 57.59765625 8.38378906 C57.19921875 10.25878906 57.19921875 10.25878906 54.19921875 12.25878906 C51.58081055 12.51948547 51.58081055 12.51948547 48.3984375 12.53344727 C47.20710205 12.54297928 46.0157666 12.55251129 44.78833008 12.56233215 C43.50079834 12.56142075 42.2132666 12.56050934 40.88671875 12.55957031 C39.55297716 12.56345745 38.2192368 12.56779215 36.88549805 12.57255554 C34.09126775 12.58001496 31.29716381 12.57972824 28.50292969 12.57446289 C24.92150655 12.56866376 21.34059981 12.58561057 17.75926208 12.60880756 C15.00546239 12.62353494 12.25178742 12.62441809 9.49795532 12.62129784 C7.53531622 12.62206114 5.57269647 12.63594019 3.61010742 12.64997864 C1.82310425 12.64063545 1.82310425 12.64063545 0 12.63110352 C-1.05018311 12.63173294 -2.10036621 12.63236237 -3.18237305 12.63301086 C-5.80078125 12.25878906 -5.80078125 12.25878906 -7.63989258 10.95817566 C-9.58276899 8.11406304 -9.1625139 5.57467173 -8.80078125 2.25878906 C-5.35249217 -0.04007033 -4.06123895 0.00615339 0 0 Z " fill="#1E2F3F" transform="translate(144.80078125,365.7412109375)"/>
<path d="M0 0 C1.35677101 -0.01902626 1.35677101 -0.01902626 2.74095154 -0.03843689 C4.19574669 -0.03403343 4.19574669 -0.03403343 5.67993164 -0.02954102 C7.1851815 -0.03740379 7.1851815 -0.03740379 8.72084045 -0.04542542 C10.8415535 -0.05184429 12.96230216 -0.05051037 15.08300781 -0.04199219 C18.32494646 -0.03348699 21.56512038 -0.06223868 24.80688477 -0.09399414 C26.8687332 -0.09560639 28.93058474 -0.09502817 30.99243164 -0.09204102 C31.96027084 -0.10327499 32.92811005 -0.11450897 33.92527771 -0.12608337 C38.22232863 -0.08167231 40.7657402 0.03931494 44.55322266 2.20849609 C46.40258789 4.40405273 46.40258789 4.40405273 46.40258789 8.02905273 C45.40258789 11.40405273 45.40258789 11.40405273 42.40258789 13.40405273 C40.23974609 13.66474915 40.23974609 13.66474915 37.70336914 13.67871094 C36.2767395 13.69300896 36.2767395 13.69300896 34.82128906 13.70759583 C33.79624268 13.70668442 32.77119629 13.70577301 31.71508789 13.70483398 C30.6610376 13.70911911 29.6069873 13.71340424 28.52099609 13.71781921 C26.29175536 13.72356394 24.06249588 13.72406174 21.83325195 13.71972656 C18.41593604 13.71656508 14.99948431 13.74002991 11.58227539 13.76538086 C9.41821399 13.76765361 7.25415025 13.76835746 5.09008789 13.76733398 C4.0650415 13.77654373 3.03999512 13.78575348 1.98388672 13.79524231 C0.55725708 13.78589912 0.55725708 13.78589912 -0.89819336 13.77636719 C-2.15369995 13.77731133 -2.15369995 13.77731133 -3.43457031 13.77827454 C-6.12469188 13.3128211 -7.00280334 12.5956339 -8.59741211 10.40405273 C-9.03491211 6.90405273 -9.03491211 6.90405273 -8.59741211 3.40405273 C-5.823437 0.70422349 -3.8210554 0.02602691 0 0 Z " fill="#233343" transform="translate(144.597412109375,321.595947265625)"/>
<path d="M0 0 C0.14553599 3.89543877 0.23415059 7.79017651 0.3125 11.6875 C0.35439453 12.79029297 0.39628906 13.89308594 0.43945312 15.02929688 C0.51060677 19.73966817 0.50671261 23.04185252 -1.71875 27.25 C-6.93544388 30.03223674 -12.00787693 29.52387283 -17.8125 29.3125 C-18.98232422 29.28994141 -20.15214844 29.26738281 -21.35742188 29.24414062 C-24.23958769 29.18532091 -27.11913681 29.10317141 -30 29 C-25.07715135 23.0306274 -19.72409764 17.53790055 -14.2578125 12.07250977 C-12.73407487 10.54655166 -11.2185557 9.01271855 -9.703125 7.47851562 C-8.7348633 6.50732543 -7.76613071 5.53660442 -6.796875 4.56640625 C-5.92385742 3.68927979 -5.05083984 2.81215332 -4.15136719 1.90844727 C-2 0 -2 0 0 0 Z " fill="#7D727F" transform="translate(157,207)"/>
</svg>
